<svg width="16" height="16" viewBox="0 0 16 16" fill="none" xmlns="http://www.w3.org/2000/svg">
<path d="M7.99785 5.20371C6.52888 5.20371 5.3301 6.37363 5.3301 7.80722C5.3301 9.24082 6.52888 10.4107 7.99785 10.4107C9.46681 10.4107 10.6656 9.24082 10.6656 7.80722C10.6656 6.37363 9.46681 5.20371 7.99785 5.20371ZM15.9991 7.80722C15.9991 6.7291 16.0091 5.66074 15.9471 4.58457C15.885 3.33457 15.5928 2.22519 14.6562 1.31113C13.7176 0.395112 12.5829 0.111909 11.302 0.0513622C10.1973 -0.00918471 9.10258 0.000580946 7.99985 0.000580946C6.89512 0.000580946 5.80041 -0.00918471 4.69768 0.0513622C3.41684 0.111909 2.28009 0.397065 1.34348 1.31113C0.404861 2.22714 0.11467 3.33457 0.0526294 4.58457C-0.00941132 5.66269 0.000595279 6.73105 0.000595279 7.80722C0.000595279 8.88339 -0.00941132 9.95371 0.0526294 11.0299C0.11467 12.2799 0.406862 13.3893 1.34348 14.3033C2.28209 15.2193 3.41684 15.5025 4.69768 15.5631C5.80241 15.6236 6.89713 15.6139 7.99985 15.6139C9.10458 15.6139 10.1993 15.6236 11.302 15.5631C12.5829 15.5025 13.7196 15.2174 14.6562 14.3033C15.5948 13.3873 15.885 12.2799 15.9471 11.0299C16.0111 9.95371 15.9991 8.88535 15.9991 7.80722ZM7.99785 11.8131C5.72636 11.8131 3.89315 10.024 3.89315 7.80722C3.89315 5.59042 5.72636 3.80136 7.99785 3.80136C10.2693 3.80136 12.1025 5.59042 12.1025 7.80722C12.1025 10.024 10.2693 11.8131 7.99785 11.8131ZM12.2707 4.57285C11.7403 4.57285 11.312 4.15488 11.312 3.6373C11.312 3.11972 11.7403 2.70175 12.2707 2.70175C12.801 2.70175 13.2293 3.11972 13.2293 3.6373C13.2294 3.7602 13.2048 3.88192 13.1566 3.9955C13.1085 4.10908 13.0379 4.21227 12.9489 4.29918C12.8598 4.38608 12.7541 4.45499 12.6377 4.50195C12.5213 4.54891 12.3966 4.573 12.2707 4.57285Z" fill="#373F46"/>
</svg>
