<svg width="16" height="16" viewBox="0 0 16 16" fill="none" xmlns="http://www.w3.org/2000/svg">
<path d="M3.13511 0C1.41086 0 0 1.41086 0 3.1351V12.8649C0 14.5891 1.41086 16 3.13511 16H12.8649C14.5891 16 16 14.5891 16 12.8649V3.1351C16 1.41086 14.5891 0 12.8649 0H3.13511ZM4.92989 3.61003H8.08599C8.74146 3.61003 9.23935 3.63401 9.57731 3.68553C9.91526 3.73446 10.2327 3.83936 10.5277 3.99899C10.8469 4.17095 11.0867 4.40252 11.2446 4.6894C11.4025 4.97797 11.4826 5.30965 11.4826 5.68677C11.4826 6.12262 11.3738 6.51004 11.1546 6.85013C10.9375 7.19021 10.6363 7.44029 10.2532 7.60203V7.64852C10.8044 7.76558 11.2465 8.00105 11.5781 8.35944C11.9101 8.71824 12.076 9.20122 12.076 9.80775C12.076 10.2517 11.9922 10.6433 11.824 10.9791C11.6559 11.3149 11.4308 11.5917 11.1461 11.813C10.8103 12.0769 10.4417 12.2631 10.0378 12.3759C9.63639 12.4883 9.12653 12.5444 8.50595 12.5444H4.92991V3.61005L4.92989 3.61003ZM7.16211 5.24782V7.13859H7.44457C7.82764 7.13859 8.09831 7.13465 8.25197 7.12659C8.40563 7.11853 8.56555 7.07736 8.72941 7.0016C8.90733 6.91775 9.03262 6.80133 9.09986 6.65364C9.16753 6.50424 9.20234 6.33171 9.20234 6.13721C9.20234 5.99208 9.16542 5.84429 9.09135 5.69277C9.01771 5.54124 8.90331 5.43049 8.74539 5.36282C8.59812 5.29727 8.42398 5.26272 8.22096 5.25633C8.01837 5.24993 7.71732 5.24784 7.31807 5.24784H7.16209L7.16211 5.24782ZM7.16211 8.66889V10.9056H7.2831C7.86707 10.9056 8.27041 10.9012 8.49344 10.8931C8.71647 10.885 8.94623 10.8321 9.17736 10.7316C9.38251 10.6435 9.52981 10.5144 9.62431 10.3442C9.71838 10.1743 9.7653 9.98169 9.7653 9.76674C9.7653 9.49008 9.71062 9.27511 9.59781 9.11932C9.48545 8.96184 9.31734 8.8449 9.09388 8.76487C8.95852 8.71166 8.76995 8.68284 8.53244 8.67688C8.29494 8.67093 7.97573 8.66889 7.57607 8.66889H7.16212H7.16211Z" fill="#373F46"/>
</svg>
