<svg width="73" height="73" viewBox="0 0 73 73" fill="none" xmlns="http://www.w3.org/2000/svg">
<path fill-rule="evenodd" clip-rule="evenodd" d="M0 35.3222C0.570648 26.4708 7.65237 19.3926 16.5083 18.8223V35.3222H0Z" fill="#EF7D2A"/>
<path fill-rule="evenodd" clip-rule="evenodd" d="M16.5083 54.1309C7.65243 53.5605 0.570648 46.4825 0 37.6311H16.5083V54.1309Z" fill="#E63D28"/>
<path fill-rule="evenodd" clip-rule="evenodd" d="M35.3278 37.6311C34.757 46.4823 27.6753 53.5605 18.8193 54.1308V37.6311H35.3278Z" fill="#B72A22"/>
<path fill-rule="evenodd" clip-rule="evenodd" d="M35.3277 35.3221C26.4717 34.7517 19.39 27.6736 18.8193 18.8223H35.3277V35.3221Z" fill="#F8AD03"/>
<path fill-rule="evenodd" clip-rule="evenodd" d="M35.4059 0C26.5499 0.570383 19.4682 7.64853 18.8975 16.4999H35.4059V0Z" fill="#FECD08"/>
<path fill-rule="evenodd" clip-rule="evenodd" d="M72.9995 37.6787C72.4289 46.53 65.3472 53.6082 56.4912 54.1785V37.6787H72.9995Z" fill="#E76E28"/>
<path fill-rule="evenodd" clip-rule="evenodd" d="M56.4912 18.8691C65.3471 19.4395 72.4288 26.5176 72.9994 35.369H56.4912V18.8691Z" fill="#FECD08"/>
<path fill-rule="evenodd" clip-rule="evenodd" d="M37.6729 35.3688C38.2436 26.5176 45.3252 19.4395 54.1812 18.8691V35.3688H37.6729Z" fill="#EF7D2A"/>
<path fill-rule="evenodd" clip-rule="evenodd" d="M37.6729 37.6787C46.5287 38.2491 53.6106 45.3272 54.1812 54.1785H37.6729V37.6787Z" fill="#F8AD03"/>
<path fill-rule="evenodd" clip-rule="evenodd" d="M37.5947 72.9995C46.4507 72.4291 53.5325 65.3509 54.1031 56.4995H37.5947V72.9995Z" fill="#F7D27A"/>
</svg>
